<svg width="23" height="23" viewBox="0 0 23 23" fill="none" xmlns="http://www.w3.org/2000/svg">
<path d="M18.2083 11.0208C18.2083 11.0208 16.2917 13.1004 16.2917 14.375C16.2917 14.8833 16.4936 15.3708 16.8531 15.7303C17.2125 16.0897 17.7 16.2917 18.2083 16.2917C18.7167 16.2917 19.2042 16.0897 19.5636 15.7303C19.9231 15.3708 20.125 14.8833 20.125 14.375C20.125 13.1004 18.2083 11.0208 18.2083 11.0208ZM4.99293 9.58333L9.58335 4.99292L14.1738 9.58333M15.87 8.5675L7.30252 0L5.95127 1.35125L8.2321 3.63208L3.29668 8.5675C2.73127 9.10417 2.73127 10.0338 3.29668 10.5992L8.56751 15.87C8.84543 16.1479 9.21918 16.2917 9.58335 16.2917C9.94752 16.2917 10.3213 16.1479 10.5992 15.87L15.87 10.5992C16.4354 10.0338 16.4354 9.10417 15.87 8.5675Z" fill="black"/>
</svg>
